<svg width="165" height="36" viewBox="0 0 165 36" fill="none" xmlns="http://www.w3.org/2000/svg">
<g clip-path="url(#clip0_19_285)">
<path d="M48.2725 25.2822H60.0136V22.1212H52.4455V10.2149H48.2725V25.2822Z" fill="white"/>
<path d="M66.9698 23.1749C65.2959 23.1749 64.4235 21.8683 64.4235 19.9085C64.4235 17.9487 65.2959 16.6211 66.9698 16.6211C68.6437 16.6211 69.5396 17.9487 69.5396 19.9085C69.5396 21.8683 68.6437 23.1749 66.9698 23.1749ZM66.9934 25.6194C70.8835 25.6194 73.4298 23.1538 73.4298 19.9085C73.4298 16.6633 70.8835 14.1977 66.9934 14.1977C63.1268 14.1977 60.5334 16.6633 60.5334 19.9085C60.5334 23.1538 63.1268 25.6194 66.9934 25.6194Z" fill="white"/>
<path d="M80.1632 29.0121C81.955 29.0121 83.5346 28.6539 84.5956 27.811C85.5622 27.0313 86.1988 25.8512 86.1988 24.2285V14.4927H82.5208V15.6517H82.4737C81.7664 14.7456 80.6819 14.1766 79.0787 14.1766C76.0845 14.1766 74.0097 16.4104 74.0097 19.5714C74.0097 22.8798 76.5324 24.6921 79.2437 24.6921C80.7055 24.6921 81.6249 24.1653 82.3322 23.4488H82.4265V24.5236C82.4265 25.8301 81.7428 26.5887 80.116 26.5887C78.8429 26.5887 78.2063 26.104 77.9942 25.5351H74.2691C74.6463 27.7899 76.8389 29.0121 80.1632 29.0121ZM80.1396 22.1423C78.7014 22.1423 77.7584 21.0886 77.7584 19.466C77.7584 17.8223 78.7014 16.7686 80.1396 16.7686C81.7428 16.7686 82.5916 17.9909 82.5916 19.4449C82.5916 20.9622 81.8135 22.1423 80.1396 22.1423Z" fill="white"/>
<path d="M93.7613 23.1749C92.0874 23.1749 91.2151 21.8683 91.2151 19.9085C91.2151 17.9487 92.0874 16.6211 93.7613 16.6211C95.4352 16.6211 96.3311 17.9487 96.3311 19.9085C96.3311 21.8683 95.4352 23.1749 93.7613 23.1749ZM93.7849 25.6194C97.675 25.6194 100.222 23.1538 100.222 19.9085C100.222 16.6633 97.675 14.1977 93.7849 14.1977C89.9184 14.1977 87.3249 16.6633 87.3249 19.9085C87.3249 23.1538 89.9184 25.6194 93.7849 25.6194Z" fill="white"/>
<path d="M101.343 25.2822H105.186V14.4927H101.343V25.2822ZM101.343 12.9965H105.186V10.2149H101.343V12.9965Z" fill="white"/>
<path d="M106.853 28.8436H110.696V24.1653H110.744C111.498 25.0715 112.606 25.6194 114.162 25.6194C117.321 25.6194 119.42 23.3856 119.42 19.8875C119.42 16.6422 117.463 14.1766 114.256 14.1766C112.606 14.1766 111.427 14.8299 110.602 15.7993H110.531V14.4927H106.853V28.8436ZM113.172 22.9641C111.522 22.9641 110.579 21.763 110.579 20.0139C110.579 18.2648 111.427 16.9372 113.101 16.9372C114.752 16.9372 115.53 18.1595 115.53 20.0139C115.53 21.8473 114.634 22.9641 113.172 22.9641Z" fill="white"/>
<path d="M125.677 25.6194C128.837 25.6194 131.171 24.3971 131.171 22.0369C131.171 19.2763 128.671 18.7916 126.55 18.4756C125.017 18.2227 123.65 18.1173 123.65 17.3587C123.65 16.6843 124.381 16.3682 125.324 16.3682C126.385 16.3682 127.115 16.6633 127.257 17.6326H130.793C130.605 15.5042 128.766 14.1766 125.347 14.1766C122.494 14.1766 120.137 15.3567 120.137 17.6326C120.137 20.1614 122.377 20.6672 124.475 20.9833C126.078 21.2361 127.54 21.3415 127.54 22.3109C127.54 23.0063 126.809 23.3856 125.654 23.3856C124.381 23.3856 123.579 22.8588 123.438 21.784H119.807C119.925 24.1653 122.141 25.6194 125.677 25.6194Z" fill="white"/>
<path d="M136.39 25.5983C138.064 25.5983 139.125 25.0082 139.997 23.9546H140.068V25.2822H143.746V14.4927H139.903V20.5196C139.903 21.8051 139.101 22.6902 137.781 22.6902C136.555 22.6902 135.965 22.0369 135.965 20.8568V14.4927H132.146V21.5733C132.146 23.9756 133.608 25.5983 136.39 25.5983Z" fill="white"/>
<path d="M145.418 25.2822H149.261V19.2342C149.261 17.9487 149.968 17.0426 151.17 17.0426C152.326 17.0426 152.868 17.7169 152.868 18.8759V25.2822H156.711V19.2342C156.711 17.9487 157.394 17.0426 158.62 17.0426C159.776 17.0426 160.318 17.7169 160.318 18.8759V25.2822H164.161V18.2648C164.161 15.8414 162.793 14.1766 160.059 14.1766C158.503 14.1766 157.206 14.7667 156.263 16.0732H156.216C155.603 14.9142 154.4 14.1766 152.821 14.1766C151.076 14.1766 149.921 14.9142 149.166 16.0311H149.096V14.4927H145.418V25.2822Z" fill="white"/>
<path fill-rule="evenodd" clip-rule="evenodd" d="M9.00144 3.41664C7.59603 4.295 6.32516 5.33352 5.22193 6.50257C9.73024 6.12846 15.4579 6.73933 22.1076 9.7112C29.2087 12.8846 34.9267 12.9919 38.9062 12.3058C38.5451 11.3287 38.0905 10.3895 37.5521 9.4967C32.9966 9.92615 27.1565 9.3577 20.3504 6.31605C16.0284 4.38452 12.2187 3.58886 9.00144 3.41664ZM34.891 6.11118C31.2935 2.51851 26.0655 0.257538 20.2467 0.257538C18.5379 0.257538 16.8798 0.452559 15.2992 0.819032C17.44 1.34112 19.7141 2.10494 22.1076 3.17465C27.0907 5.40161 31.3928 6.11865 34.891 6.11118ZM39.7571 15.7358C34.9494 16.5844 28.3106 16.4101 20.3504 12.8526C12.9085 9.52673 6.98536 9.56861 2.9906 10.3621C2.7844 10.403 2.58306 10.446 2.38658 10.4908C1.86356 11.5075 1.44608 12.5766 1.14653 13.6868C1.46646 13.6104 1.79707 13.5378 2.13817 13.47C6.98452 12.5074 13.832 12.5492 22.1076 16.2478C29.5496 19.5736 35.4727 19.5317 39.4676 18.7382C39.6044 18.7111 39.7393 18.683 39.8719 18.654C39.8864 18.3772 39.8937 18.0986 39.8937 17.8185C39.8937 17.1139 39.8473 16.4189 39.7571 15.7358ZM39.2304 22.36C34.4695 23.104 28.0239 22.8185 20.3504 19.3891C12.9085 16.0633 6.98536 16.1052 2.9906 16.8986C2.10387 17.0747 1.30619 17.2892 0.602526 17.5157C0.600607 17.6164 0.599648 17.7173 0.599648 17.8185C0.599648 27.5172 9.39592 35.3795 20.2467 35.3795C29.3404 35.3795 36.9911 29.8573 39.2304 22.36Z" fill="white"/>
</g>
<defs>
<clipPath id="clip0_19_285">
<rect width="164.053" height="36" fill="white" transform="translate(0.5)"/>
</clipPath>
</defs>
</svg>
